# File created by Blade
# Date/Time:  Thu Jan 22 19:29:39 2015
# Frame Rate: 120.000 fps
#------------------------------------------------------
:FULLY-SPECIFIED
:DEGREES
1960
root -4.234470 32.985182 4.120631 8.094057 -8.841330 3.185686
RightUpLeg 2.071659 -1.148672 0.393124
RightLeg -2.166786 -0.000000 0.000000
RightFoot -12.235983 -2.855944 1.125329
RightToeBase 3.439003 -0.000000 -0.000000
LeftUpLeg 0.855781 4.676411 0.855326
LeftLeg 2.602000 -0.000000 -0.000000
LeftFoot -13.118311 6.371770 -19.636825
LeftToeBase 6.639873 -0.000000 -0.000000
Spine -11.778489 -0.512712 -3.328258
RightShoulder -18.047170 -14.157258 -25.377727
RightArm 19.792318 33.140104 42.060092
RightForeArm -3.457366 -0.000000 11.311645
RightHand 11.587422 -0.000000 3.989598
RightHandThumb1 -24.326973 -0.000000 -32.862282
LeftShoulder -25.375930 9.373945 26.426228
LeftArm 18.072566 -36.406171 -47.909429
LeftForeArm 3.322713 -0.000000 10.754269
LeftHand 3.488058 0.000000 39.962591
LeftHandThumb1 -26.253704 0.000000 33.147579
Head -0.404385 8.579743 1.853850
1961
root -4.220099 32.975564 4.126826 8.165285 -8.738074 3.076981
RightUpLeg 2.043507 -1.161054 0.487578
RightLeg -2.170783 -0.000000 0.000000
RightFoot -12.261166 -2.889099 1.217453
RightToeBase 3.839328 -0.000000 -0.000000
LeftUpLeg 0.995632 4.670720 0.937255
LeftLeg 2.201549 -0.000000 -0.000000
LeftFoot -13.108091 6.367241 -19.529535
LeftToeBase 6.823299 -0.000000 -0.000000
Spine -11.797022 -0.575214 -3.215831
RightShoulder -18.116396 -14.231848 -25.337150
RightArm 19.827025 33.315172 42.169633
RightForeArm -3.446148 -0.000000 11.337825
RightHand 11.637279 -0.000000 3.929337
RightHandThumb1 -24.326973 -0.000000 -32.862282
LeftShoulder -25.472675 9.463210 26.375710
LeftArm 18.088599 -36.476007 -47.991942
LeftForeArm 3.090907 -0.000000 11.149967
LeftHand 3.447290 -0.000000 39.737183
LeftHandThumb1 -26.253704 0.000000 33.147579
Head -0.410793 8.522966 1.926326
1962
root -4.206058 32.966629 4.131894 8.259244 -8.627390 2.955733
RightUpLeg 1.980337 -1.135492 0.601313
RightLeg -2.151382 -0.000000 0.000000
RightFoot -12.280338 -3.013882 1.232581
RightToeBase 3.794878 -0.000000 -0.000000
LeftUpLeg 1.095456 4.626555 1.026748
LeftLeg 1.827015 -0.000000 -0.000000
LeftFoot -13.125874 6.408254 -19.399712
LeftToeBase 6.974989 -0.000000 -0.000000
Spine -11.849473 -0.642031 -3.092595
RightShoulder -18.162412 -14.290490 -25.284399
RightArm 19.821128 33.416341 42.201657
RightForeArm -3.374916 -0.000000 11.337448
RightHand 11.637835 -0.000000 3.804815
RightHandThumb1 -24.326973 -0.000000 -32.862282
LeftShoulder -25.560020 9.517392 26.325153
LeftArm 18.089738 -36.223078 -47.852934
LeftForeArm 2.687614 -0.000000 11.211583
LeftHand 3.496365 0.000000 39.526861
LeftHandThumb1 -26.253704 0.000000 33.147579
Head -0.357653 8.424378 2.004581
1963
root -4.191865 32.957167 4.136323 8.348317 -8.522697 2.840898
RightUpLeg 1.920056 -1.163552 0.703522
RightLeg -2.138290 -0.000000 0.000000
RightFoot -12.300118 -3.050946 1.247200
RightToeBase 3.742631 -0.000000 -0.000000
LeftUpLeg 1.179947 4.635431 1.103217
LeftLeg 1.490994 -0.000000 -0.000000
LeftFoot -13.149663 6.433850 -19.256890
LeftToeBase 7.121038 -0.000000 -0.000000
Spine -11.894664 -0.661246 -2.993690
RightShoulder -18.232903 -14.335329 -25.233379
RightArm 19.771641 33.509776 42.227328
RightForeArm -3.389039 -0.000000 11.339059
RightHand 11.666155 0.000000 3.721442
RightHandThumb1 -24.326973 -0.000000 -32.862282
LeftShoulder -25.570698 9.590830 26.300672
LeftArm 18.129869 -36.023377 -47.733427
LeftForeArm 2.723398 -0.000000 11.102201
LeftHand 3.641479 -0.000000 39.503564
LeftHandThumb1 -26.253704 0.000000 33.147579
Head -0.319390 8.310016 2.090397
1964
root -4.177874 32.947571 4.137301 8.439317 -8.401316 2.726099
RightUpLeg 1.844908 -1.172469 0.811454
RightLeg -2.103460 -0.000000 0.000000
RightFoot -12.320009 -3.144661 1.217580
RightToeBase 3.650370 -0.000000 -0.000000
LeftUpLeg 1.235460 4.613933 1.174629
LeftLeg 1.202604 -0.000000 -0.000000
LeftFoot -13.208981 6.461705 -19.217517
LeftToeBase 7.264268 -0.000000 -0.000000
Spine -11.932014 -0.707334 -2.891159
RightShoulder -18.315939 -14.381625 -25.195961
RightArm 19.773853 33.604418 42.296470
RightForeArm -3.399931 -0.000000 11.320670
RightHand 11.728668 0.000000 3.674062
RightHandThumb1 -24.326973 -0.000000 -32.862282
LeftShoulder -25.531238 9.579954 26.381069
LeftArm 18.053075 -35.771826 -47.623449
LeftForeArm 3.052830 -0.000000 10.922579
LeftHand 3.665675 0.000000 39.641009
LeftHandThumb1 -26.253704 0.000000 33.147579
Head -0.311267 8.212653 2.166523
1965
root -4.163479 32.938930 4.139115 8.505288 -8.270729 2.623231
RightUpLeg 1.794238 -1.163182 0.909687
RightLeg -2.070966 -0.000000 0.000000
RightFoot -12.351983 -3.255394 1.230304
RightToeBase 3.605275 -0.000000 -0.000000
LeftUpLeg 1.282525 4.614370 1.243436
LeftLeg 0.955081 -0.000000 -0.000000
LeftFoot -13.257643 6.502814 -18.995170
LeftToeBase 7.435847 -0.000000 -0.000000
Spine -11.950182 -0.776529 -2.794736
RightShoulder -18.372935 -14.406618 -25.179414
RightArm 19.756553 33.669179 42.364540
RightForeArm -3.394667 0.000000 11.318655
RightHand 11.753821 0.000000 3.619611
RightHandThumb1 -24.326973 -0.000000 -32.862282
LeftShoulder -25.503587 9.622323 26.435361
LeftArm 18.011114 -35.438474 -47.496825
LeftForeArm 2.709103 0.000000 10.714602
LeftHand 3.628077 -0.000000 39.742244
LeftHandThumb1 -26.253704 0.000000 33.147579
Head -0.264057 8.092153 2.252993
1966
root -4.148494 32.930626 4.139177 8.581026 -8.144182 2.518394
RightUpLeg 1.732615 -1.133223 1.006833
RightLeg -2.042215 -0.000000 0.000000
RightFoot -12.377959 -3.372886 1.266562
RightToeBase 3.584623 -0.000000 -0.000000
LeftUpLeg 1.302080 4.661995 1.309088
LeftLeg 0.750189 -0.000000 -0.000000
LeftFoot -13.324472 6.474822 -18.874669
LeftToeBase 7.629513 -0.000000 -0.000000
Spine -11.978321 -0.816808 -2.713522
RightShoulder -18.447786 -14.433763 -25.123080
RightArm 19.734251 33.750502 42.396309
RightForeArm -3.457857 -0.000000 11.317702
RightHand 11.743628 -0.000000 3.755084
RightHandThumb1 -24.326973 -0.000000 -32.862282
LeftShoulder -25.445585 9.606600 26.562347
LeftArm 17.917951 -35.199594 -47.429607
LeftForeArm 2.110800 -0.000000 10.503042
LeftHand 3.675061 0.000000 39.755627
LeftHandThumb1 -26.253704 0.000000 33.147579
Head -0.223352 7.939613 2.352951
1967
root -4.133523 32.923392 4.138137 8.658071 -8.008615 2.419876
RightUpLeg 1.664833 -1.146276 1.098492
RightLeg -2.008472 -0.000000 0.000000
RightFoot -12.399301 -3.455315 1.275694
RightToeBase 3.572465 -0.000000 -0.000000
LeftUpLeg 1.289400 4.722927 1.369903
LeftLeg 0.591626 -0.000000 -0.000000
LeftFoot -13.377233 6.438803 -18.717946
LeftToeBase 7.737211 -0.000000 -0.000000
Spine -12.010816 -0.865307 -2.638898
RightShoulder -18.513424 -14.476458 -25.064246
RightArm 19.708932 33.807729 42.422462
RightForeArm -3.515398 -0.000000 11.331541
RightHand 11.667590 -0.000000 3.750404
RightHandThumb1 -24.326973 -0.000000 -32.862282
LeftShoulder -25.397403 9.624211 26.654450
LeftArm 17.930329 -35.186148 -47.475179
LeftForeArm 1.941657 -0.000000 10.293601
LeftHand 3.812503 -0.000000 39.688543
LeftHandThumb1 -26.253704 0.000000 33.147579
Head -0.178587 7.835205 2.446034
1968
root -4.117677 32.916888 4.137472 8.720496 -7.872238 2.328588
RightUpLeg 1.612700 -1.122059 1.183125
RightLeg -1.978822 -0.000000 0.000000
RightFoot -12.424625 -3.583994 1.306316
RightToeBase 3.571113 -0.000000 -0.000000
LeftUpLeg 1.267508 4.805978 1.422192
LeftLeg 0.479914 -0.000000 -0.000000
LeftFoot -13.433415 6.388502 -18.528040
LeftToeBase 7.877922 -0.000000 -0.000000
Spine -12.022178 -0.944636 -2.553093
RightShoulder -18.565478 -14.489401 -25.037854
RightArm 19.679188 33.858268 42.468664
RightForeArm -3.527320 0.000000 11.358104
RightHand 11.746149 0.000000 3.838572
RightHandThumb1 -24.326973 -0.000000 -32.862282
LeftShoulder -25.367459 9.664283 26.702236
LeftArm 17.901718 -35.179827 -47.496897
LeftForeArm 1.926168 -0.000000 10.184618
LeftHand 3.831528 -0.000000 39.716998
LeftHandThumb1 -26.253704 0.000000 33.147579
Head -0.154618 7.748078 2.524223
